<svg xmlns="http://www.w3.org/2000/svg" width="20" height="24" viewBox="0 0 20 24"><title>anchor</title><path d="M14.95,16.13h2.33A8.91,8.91,0,0,1,11,20v-4.1a7.59,7.59,0,0,0,4.24-3l-1.61-1.18A5.79,5.79,0,0,1,11,13.8V10l.35-.09c2.47-.6,5-1.22,5.61-3.43s-1-3.66-3.06-4.32a3.74,3.74,0,0,1-.12,2.09c.8.35,1.47.87,1.25,1.72-.27,1-2.17,1.52-4,2v0c0-2.39,2-2.62,2-4.9A3,3,0,0,0,7,3C7,5.3,9,5.49,9,7.9v.56c-2.07.62-3.9,1.57-4,3.8-.12,1.89,1.34,3.65,4,3.82V20a8.74,8.74,0,0,1-6.28-3.87H5.05L0,13v5.91l1.27-1.8C4,21.62,7.65,21.42,10,24c2.35-2.58,6-2.39,8.73-6.89L20,18.91V13ZM10,2A1,1,0,1,1,9,3,1,1,0,0,1,10,2ZM7,12.37c.05-.87.81-1.38,2-1.81v3.52C7.46,13.92,6.91,13.09,7,12.37Z" style="fill:#369bac"/></svg>